<svg width="11" height="13" viewBox="0 0 11 13" fill="none" xmlns="http://www.w3.org/2000/svg">
<path d="M8.72448 6.03507L10.3039 4.30132C10.5217 4.07054 10.6954 3.79448 10.8149 3.48925C10.9344 3.18402 10.9973 2.85573 10.9999 2.52354C11.0025 2.19135 10.9449 1.86192 10.8302 1.55446C10.7156 1.24699 10.5463 0.967662 10.3322 0.732761C10.1181 0.49786 9.86356 0.312093 9.58336 0.186301C9.30316 0.0605078 9.00293 -0.00279216 8.7002 9.44599e-05C8.39746 0.00298108 8.09828 0.0719964 7.82011 0.203113C7.54194 0.33423 7.29036 0.524823 7.08004 0.763771L5.5 2.49689L3.91997 0.763771C3.70964 0.524823 3.45806 0.33423 3.17989 0.203113C2.90172 0.0719964 2.60254 0.00298108 2.2998 9.44599e-05C1.99707 -0.00279216 1.69684 0.0605078 1.41664 0.186301C1.13643 0.312093 0.881869 0.49786 0.667795 0.732761C0.45372 0.967662 0.284423 1.24699 0.169783 1.55446C0.0551432 1.86192 -0.00254461 2.19135 8.60851e-05 2.52354C0.00271678 2.85573 0.0656132 3.18402 0.185105 3.48925C0.304597 3.79448 0.478292 4.07054 0.696055 4.30132L2.27552 6.03507L0.696055 7.76882C0.478292 7.9996 0.304597 8.27566 0.185105 8.58089C0.0656132 8.88612 0.00271678 9.21441 8.60851e-05 9.54659C-0.00254461 9.87878 0.0551432 10.2082 0.169783 10.5157C0.284423 10.8231 0.45372 11.1025 0.667795 11.3374C0.881869 11.5723 1.13643 11.758 1.41664 11.8838C1.69684 12.0096 1.99707 12.0729 2.2998 12.07C2.60254 12.0672 2.90172 11.9981 3.17989 11.867C3.45806 11.7359 3.70964 11.5453 3.91997 11.3064L5.5 9.57324L7.08004 11.3064C7.29036 11.5453 7.54194 11.7359 7.82011 11.867C8.09828 11.9981 8.39746 12.0672 8.7002 12.07C9.00293 12.0729 9.30316 12.0096 9.58336 11.8838C9.86356 11.758 10.1181 11.5723 10.3322 11.3374C10.5463 11.1025 10.7156 10.8231 10.8302 10.5157C10.9449 10.2082 11.0025 9.87878 10.9999 9.54659C10.9973 9.21441 10.9344 8.88612 10.8149 8.58089C10.6954 8.27566 10.5217 7.9996 10.3039 7.76882L8.72448 6.03507ZM7.72299 1.46928C7.85024 1.32965 8.00131 1.21889 8.16757 1.14332C8.33383 1.06775 8.51203 1.02886 8.69199 1.02886C8.87195 1.02886 9.05015 1.06775 9.21641 1.14332C9.38267 1.21889 9.53374 1.32965 9.66099 1.46928C9.78824 1.60891 9.88918 1.77467 9.95805 1.95711C10.0269 2.13954 10.0624 2.33508 10.0624 2.53254C10.0624 2.73001 10.0269 2.92554 9.95805 3.10798C9.88918 3.29042 9.78824 3.45618 9.66099 3.59581L8.08095 5.32956L6.14467 3.2049L7.72299 1.46928ZM7.43286 6.03507L5.5 8.15785L3.56543 6.03507L5.5 3.91229L7.43286 6.03507ZM1.33901 3.59581C1.21176 3.45618 1.11082 3.29042 1.04195 3.10798C0.973087 2.92554 0.937641 2.73001 0.937641 2.53254C0.937641 2.33508 0.973087 2.13954 1.04195 1.95711C1.11082 1.77467 1.21176 1.60891 1.33901 1.46928C1.46626 1.32965 1.61733 1.21889 1.78359 1.14332C1.94985 1.06775 2.12805 1.02886 2.30801 1.02886C2.48797 1.02886 2.66617 1.06775 2.83243 1.14332C2.99869 1.21889 3.14976 1.32965 3.27701 1.46928L4.85704 3.20303L2.92076 5.32768L1.33901 3.59581ZM3.27701 10.6009C3.14976 10.7405 2.99869 10.8512 2.83243 10.9268C2.66617 11.0024 2.48797 11.0413 2.30801 11.0413C2.12805 11.0413 1.94985 11.0024 1.78359 10.9268C1.61733 10.8512 1.46626 10.7405 1.33901 10.6009C1.21176 10.4612 1.11082 10.2955 1.04195 10.113C0.973087 9.93059 0.937641 9.73506 0.937641 9.53759C0.937641 9.34012 0.973087 9.14459 1.04195 8.96216C1.11082 8.77972 1.21176 8.61396 1.33901 8.47433L2.91905 6.74058L4.85362 8.86336L3.27701 10.6009ZM9.66099 10.6009C9.5339 10.7408 9.38288 10.8518 9.2166 10.9276C9.05031 11.0034 8.87204 11.0424 8.69199 11.0424C8.51194 11.0424 8.33367 11.0034 8.16738 10.9276C8.0011 10.8518 7.85008 10.7408 7.72299 10.6009L6.14296 8.86711L8.07753 6.74433L9.66099 8.47433C9.78852 8.61378 9.88971 8.77949 9.95876 8.96195C10.0278 9.14441 10.0633 9.34003 10.0633 9.53759C10.0633 9.73515 10.0278 9.93077 9.95876 10.1132C9.88971 10.2957 9.78852 10.4614 9.66099 10.6009ZM4.816 6.03507C4.816 5.88663 4.85612 5.74152 4.93128 5.61809C5.00643 5.49466 5.11326 5.39847 5.23825 5.34166C5.36323 5.28485 5.50076 5.26999 5.63344 5.29895C5.76612 5.32791 5.888 5.39939 5.98366 5.50436C6.07932 5.60932 6.14446 5.74305 6.17086 5.88864C6.19725 6.03424 6.1837 6.18514 6.13193 6.32229C6.08016 6.45943 5.99249 6.57665 5.88001 6.65912C5.76753 6.74159 5.63528 6.78561 5.5 6.78561C5.31859 6.78561 5.14461 6.70653 5.01634 6.56578C4.88807 6.42503 4.816 6.23412 4.816 6.03507Z" fill="#575757"/>
</svg>
