<svg width="12" height="10" viewBox="0 0 12 10" fill="none" xmlns="http://www.w3.org/2000/svg">
<rect x="0.399805" y="2.81109" width="3.17156" height="3.76445" rx="1.4" stroke="#575757" stroke-width="0.8"/>
<rect x="8.02822" y="5.4725" width="3.17156" height="3.76445" rx="1.4" stroke="#575757" stroke-width="0.8"/>
<rect x="8.02822" y="0.399988" width="3.17156" height="3.76445" rx="1.4" stroke="#575757" stroke-width="0.8"/>
<path d="M5.22207 7.22955C5.22207 7.45047 5.40116 7.62955 5.62207 7.62955C5.84298 7.62955 6.02207 7.45047 6.02207 7.22955L5.62207 7.22955L5.22207 7.22955ZM5.62207 2.40738L5.22207 2.40738L5.22207 7.22955L5.62207 7.22955L6.02207 7.22955L6.02207 2.40738L5.62207 2.40738Z" fill="#575757"/>
<path d="M8.0332 7.22955L5.62212 7.22955" stroke="#575757" stroke-width="0.8" stroke-linecap="round"/>
<path d="M5.62207 4.81848L4.01468 4.81848" stroke="#575757" stroke-width="0.8" stroke-linecap="round"/>
<path d="M5.62212 2.00738C5.4012 2.00738 5.22212 2.18647 5.22212 2.40738C5.22212 2.62829 5.4012 2.80738 5.62212 2.80738L5.62212 2.40738L5.62212 2.00738ZM8.0332 2.40738L8.0332 2.00738L5.62212 2.00738L5.62212 2.40738L5.62212 2.80738L8.0332 2.80738L8.0332 2.40738Z" fill="#575757"/>
</svg>
