<svg width="6" height="7" viewBox="0 0 6 7" fill="none" xmlns="http://www.w3.org/2000/svg">
<path d="M3.69823 -8.6745e-07L1.35081 0.000192629C1.29333 0.000186012 1.23641 0.0115026 1.18331 0.0334962C1.1302 0.0554898 1.08195 0.0877293 1.0413 0.128374C1.00066 0.169018 0.96842 0.217271 0.946427 0.270377C0.924433 0.323482 0.913116 0.3804 0.913123 0.43788L0.916411 2.51569C0.645636 2.65726 0.0969313 3.05008 0.00235371 3.93803C-0.00427954 3.99912 0.00202643 4.06092 0.0208607 4.11941C0.0396952 4.1779 0.0706361 4.23177 0.111669 4.27751C0.152703 4.32325 0.202908 4.35984 0.259018 4.38489C0.315128 4.40994 0.375885 4.42289 0.437334 4.42291L2.30606 4.42252L2.30548 6.07212C2.30548 6.13018 2.32855 6.18587 2.36961 6.22693C2.41067 6.26799 2.46636 6.29106 2.52442 6.29106C2.58249 6.29106 2.63818 6.26799 2.67924 6.22693C2.7203 6.18587 2.74337 6.13018 2.74337 6.07212L2.74278 4.42252L4.61074 4.42252C4.66829 4.42264 4.72529 4.41141 4.77849 4.38947C4.83169 4.36754 4.88004 4.33532 4.92078 4.29468C4.92813 4.28733 4.93528 4.28017 4.94263 4.27282C4.98369 4.22565 5.01411 4.1702 5.03183 4.11023C5.04956 4.05025 5.05416 3.98717 5.04533 3.92526C4.92039 3.0406 4.47342 2.66674 4.13998 2.50969L4.13611 0.437493C4.13609 0.380013 4.12475 0.3231 4.10273 0.270004C4.08072 0.216909 4.04846 0.16867 4.00779 0.128043C3.96713 0.0874169 3.91887 0.0551989 3.86575 0.033229C3.81263 0.0112587 3.75571 -3.28991e-05 3.69823 -8.6745e-07ZM3.69823 0.43788L3.70191 2.65688C3.70199 2.70271 3.71647 2.74736 3.74329 2.78453C3.77012 2.8217 3.80794 2.8495 3.85141 2.86402C4.4005 3.04718 4.56297 3.6452 4.61113 3.98503L0.43714 3.98483C0.482398 3.56281 0.656274 3.28952 0.827249 3.11855C0.934257 3.00858 1.06313 2.92227 1.20556 2.86518C1.24923 2.85064 1.2872 2.8227 1.31408 2.78534C1.34095 2.74798 1.35536 2.70309 1.35526 2.65707L1.35081 0.437687L3.69804 0.437687L3.69823 0.43788Z" fill="black"/>
</svg>
