<svg width="7" height="7" viewBox="0 0 7 7" fill="none" xmlns="http://www.w3.org/2000/svg">
<path d="M0.231766 2.6047C0.202854 2.60297 0.173887 2.607 0.146543 2.61655C0.119198 2.6261 0.0940212 2.64098 0.0724704 2.66033C0.0509196 2.67968 0.0334237 2.70311 0.0209968 2.72927C0.00856986 2.75544 0.00145904 2.7838 7.65133e-05 2.81274C-0.00130603 2.84167 0.00306731 2.87058 0.0129429 2.89781C0.0228184 2.92504 0.0379998 2.95004 0.0576072 2.97135C0.0772146 2.99267 0.100858 3.00988 0.127167 3.022C0.153476 3.03411 0.181928 3.04088 0.210873 3.04191L1.23832 3.09086C1.07622 3.34642 0.977154 3.63684 0.949297 3.9382C0.942662 3.9993 0.948969 4.06112 0.967808 4.11962C0.986647 4.17813 1.0176 4.23201 1.05864 4.27776C1.09968 4.32351 1.1499 4.36011 1.20602 4.38517C1.26215 4.41022 1.32292 4.42318 1.38438 4.42319L3.25298 4.42339L3.2524 6.07338C3.2524 6.13146 3.27547 6.18716 3.31654 6.22823C3.35761 6.2693 3.41331 6.29237 3.47139 6.29237C3.52947 6.29237 3.58517 6.2693 3.62624 6.22823C3.66731 6.18716 3.69038 6.13146 3.69038 6.07338L3.6898 4.42339L5.55821 4.42339C5.61576 4.42351 5.67278 4.41228 5.726 4.39033C5.77921 4.36839 5.82757 4.33617 5.86832 4.29551C5.87567 4.28816 5.88283 4.281 5.89018 4.27365C5.93124 4.22647 5.96167 4.171 5.9794 4.11102C5.99712 4.05103 6.00173 3.98793 5.9929 3.92601C5.96393 3.71418 5.90741 3.50704 5.82479 3.30985L6.71159 3.35164C6.74051 3.35337 6.76947 3.34934 6.79682 3.33979C6.82416 3.33024 6.84934 3.31536 6.87089 3.29601C6.89244 3.27666 6.90994 3.25323 6.92236 3.22707C6.93479 3.2009 6.9419 3.17254 6.94328 3.14361C6.94467 3.11467 6.94029 3.08576 6.93042 3.05853C6.92054 3.0313 6.90536 3.0063 6.88575 2.98499C6.86615 2.96367 6.8425 2.94646 6.81619 2.93434C6.78988 2.92223 6.76143 2.91546 6.73249 2.91443L0.231766 2.6047ZM5.55879 3.98598L1.38361 3.98559C1.42191 3.62809 1.55462 3.33635 1.77806 3.11639L5.31909 3.28509C5.46689 3.51917 5.53112 3.7904 5.55879 3.98598ZM5.08327 0.437601L5.08617 2.16768C5.08621 2.19643 5.08059 2.2249 5.06962 2.25147C5.05865 2.27805 5.04256 2.3022 5.02226 2.32255C5.00196 2.3429 4.97785 2.35906 4.95131 2.3701C4.92477 2.38113 4.89631 2.38683 4.86757 2.38687C4.83882 2.38691 4.81035 2.38128 4.78378 2.37032C4.7572 2.35935 4.73305 2.34326 4.7127 2.32296C4.69234 2.30266 4.67619 2.27855 4.66515 2.25201C4.65412 2.22547 4.64842 2.19701 4.64838 2.16826L4.64567 0.437988L2.2975 0.437601L2.30001 2.03497C2.29865 2.09204 2.27506 2.14631 2.23425 2.18623C2.19345 2.22614 2.13867 2.24854 2.08159 2.24864C2.02451 2.24874 1.96965 2.22654 1.9287 2.18677C1.88776 2.147 1.86397 2.09281 1.86241 2.03575L1.8599 0.437989C1.85989 0.380495 1.87121 0.323563 1.89321 0.270445C1.91521 0.217327 1.94745 0.169062 1.98811 0.128408C2.02876 0.0877539 2.07703 0.0555065 2.13015 0.0335078C2.18326 0.011509 2.2402 0.000189696 2.29769 0.00019627L4.64567 2.67941e-06C4.76172 4.08644e-05 4.873 0.0461572 4.95506 0.128215C5.03712 0.210272 5.08323 0.321555 5.08327 0.437601Z" fill="black"/>
</svg>
